<svg xmlns="http://www.w3.org/2000/svg" width="60.377" height="60.376" viewBox="0 0 60.377 60.376">
  <g id="Logo" transform="translate(434 -1378.923)">
    <path id="Tracé_12" data-name="Tracé 12" d="M13.6-.031h2.59c7.509,0,14.243,8.142,14.243,15.651v1.945c0,7.509-6.732,13.037-14.243,13.037H13.6C6.087,30.6,0,30.635,0,23.126V6.466C0-1.043,6.087-.031,13.6-.031Z" transform="translate(-404.699 1379)" fill="#333" opacity="0.999"/>
    <path id="Tracé_13" data-name="Tracé 13" d="M11.984,30.1l3.125-.416C22.53,28.3,29.654,21.346,29.654,13.656V11.667c0-7.69-5.76-12.451-13.431-12.451H13.579c-7.67,0-15-.937-15,6.752L-5.642,24.053C-5.642,31.742,4.315,30.1,11.984,30.1Z" transform="translate(-403.277 1409.052)" fill="#333" opacity="0.999"/>
    <path id="Rectangle_16" data-name="Rectangle 16" d="M0,0H7.107a4.862,4.862,0,0,1,4.862,4.862h0A4.862,4.862,0,0,1,7.107,9.725H0Z" transform="translate(-401.834 1391.954)" fill="#e4e4e4" opacity="0.999"/>
    <path id="Rectangle_17" data-name="Rectangle 17" d="M0,0H6.358a5.61,5.61,0,0,1,5.61,5.61h0a5.61,5.61,0,0,1-5.61,5.61H0Z" transform="translate(-401.834 1414.104)" fill="#e4e4e4" opacity="0.999"/>
    <rect id="Rectangle_14" data-name="Rectangle 14" width="59.916" height="12.009" transform="translate(-401.822 1379.263) rotate(90)" fill="#333"/>
    <rect id="Rectangle_13" data-name="Rectangle 13" width="35.907" height="12.717" transform="translate(-434 1378.981)" fill="#333"/>
    <rect id="Rectangle_15" data-name="Rectangle 15" width="25.434" height="11.969" transform="translate(-423.527 1401.895)" fill="#333"/>
    <rect id="Rectangle_3" data-name="Rectangle 3" width="7" height="56" transform="translate(-412.024 1380.923)" fill="#e4e4e4"/>
    <rect id="Rectangle_4" data-name="Rectangle 4" width="17" height="8" transform="translate(-422.024 1403.923)" fill="#e4e4e4"/>
    <rect id="Rectangle_5" data-name="Rectangle 5" width="27" height="9" transform="translate(-432.024 1380.923)" fill="#e4e4e4"/>
  </g>
</svg>
