<svg xmlns="http://www.w3.org/2000/svg" width="425" height="425" viewBox="0 0 425 425">
  <g id="_5402428_day_light_mode_sun_climate_icon" data-name="5402428_day_light_mode_sun_climate_icon" transform="translate(-2 -2)">
    <circle id="Ellipse_6" data-name="Ellipse 6" cx="106.5" cy="106.5" r="106.5" transform="translate(108 108)" fill="#e4e4e4"/>
    <path id="Tracé_1" data-name="Tracé 1" d="M61.5,53.5H40.25a21.25,21.25,0,0,1,0-42.5H61.5a21.25,21.25,0,0,1,0,42.5Z" transform="translate(344.25 182.25)" fill="#e4e4e4"/>
    <path id="Tracé_2" data-name="Tracé 2" d="M44.5,53.5H23.25a21.25,21.25,0,0,1,0-42.5H44.5a21.25,21.25,0,0,1,0,42.5Z" transform="translate(0 182.25)" fill="#e4e4e4"/>
    <path id="Tracé_3" data-name="Tracé 3" d="M36.914,63.221A21.164,21.164,0,0,1,22.889,27.1L37.976,12.009A21.25,21.25,0,1,1,67.939,41.971L52.851,57.059A21.25,21.25,0,0,1,36.914,63.221Z" transform="translate(297.861 52.254)" fill="#e4e4e4"/>
    <path id="Tracé_4" data-name="Tracé 4" d="M25.906,72.019A21.144,21.144,0,0,1,10.819,35.894L25.906,21.869A21.25,21.25,0,0,1,55.869,51.832L40.781,66.919A21.25,21.25,0,0,1,25.906,72.019Z" transform="translate(53.444 298.881)" fill="#e4e4e4"/>
    <path id="Tracé_5" data-name="Tracé 5" d="M32.25,65.75A21.25,21.25,0,0,1,11,44.5V23.25a21.25,21.25,0,1,1,42.5,0V44.5A21.25,21.25,0,0,1,32.25,65.75Z" transform="translate(182.25)" fill="#e4e4e4"/>
    <path id="Tracé_6" data-name="Tracé 6" d="M32.25,82.75A21.25,21.25,0,0,1,11,61.5V40.25a21.25,21.25,0,0,1,42.5,0V61.5A21.25,21.25,0,0,1,32.25,82.75Z" transform="translate(182.25 344.25)" fill="#e4e4e4"/>
    <path id="Tracé_7" data-name="Tracé 7" d="M39.762,61.012a21.25,21.25,0,0,1-14.875-6.163L9.8,39.762A21.25,21.25,0,0,1,39.762,9.8L54.849,24.887A21.144,21.144,0,0,1,39.762,61.012Z" transform="translate(54.463 54.463)" fill="#e4e4e4"/>
    <path id="Tracé_8" data-name="Tracé 8" d="M48.454,69.7a21.25,21.25,0,0,1-14.875-6.163L19.554,48.454a21.25,21.25,0,0,1,28.9-28.9L63.541,34.641a21.25,21.25,0,0,1,0,29.962A21.25,21.25,0,0,1,48.454,69.7Z" transform="translate(301.196 301.196)" fill="#e4e4e4"/>
  </g>
</svg>
