<svg xmlns="http://www.w3.org/2000/svg" xmlns:xlink="http://www.w3.org/1999/xlink" width="80.713" height="79.38" viewBox="0 0 80.713 79.38">
  <defs>
    <linearGradient id="linear-gradient" x1="0.5" y1="1.666" x2="0.5" gradientUnits="objectBoundingBox">
      <stop offset="0"/>
      <stop offset="1" stop-color="#294c60"/>
    </linearGradient>
    <linearGradient id="linear-gradient-2" y1="0.475" x2="1" y2="0.5" gradientUnits="objectBoundingBox">
      <stop offset="0"/>
      <stop offset="1" stop-color="#c17817"/>
    </linearGradient>
    <linearGradient id="linear-gradient-3" y1="0.5" xlink:href="#linear-gradient-2"/>
  </defs>
  <g id="Logo" transform="translate(434 -1378.923)">
    <path id="Tracé_12" data-name="Tracé 12" d="M18.175-.016h3.462c10.038,0,19.04,10.884,19.04,20.922v2.6c0,10.038-9,15.428-19.04,15.428H18.175C8.137,38.93,0,40.979,0,30.941V8.67C0-1.368,8.137-.016,18.175-.016Z" transform="translate(-394.83 1379)" fill="#c17817" opacity="0.999"/>
    <path id="Tracé_13" data-name="Tracé 13" d="M17.92,40.068l4.177-.55c9.922-1.834,19.445-11.026,19.445-21.195v-2.63c0-10.169-7.7-16.465-17.954-16.465H20.053C9.8-.772,0-2.011,0,8.157L-5.642,32.072C-5.642,42.24,7.669,40.068,17.92,40.068Z" transform="translate(-394.83 1418.04)" fill="#c17817" opacity="0.999"/>
    <path id="Rectangle_16" data-name="Rectangle 16" d="M0,0H9.5A6.5,6.5,0,0,1,16,6.5v0A6.5,6.5,0,0,1,9.5,13H0a0,0,0,0,1,0,0V0A0,0,0,0,1,0,0Z" transform="translate(-391 1396)" fill="#f5f5f5" opacity="0.999"/>
    <path id="Rectangle_17" data-name="Rectangle 17" d="M0,0H8.5A7.5,7.5,0,0,1,16,7.5v0A7.5,7.5,0,0,1,8.5,15H0a0,0,0,0,1,0,0V0A0,0,0,0,1,0,0Z" transform="translate(-391 1425)" fill="#f5f5f5" opacity="0.999"/>
    <rect id="Rectangle_14" data-name="Rectangle 14" width="78.765" height="16.054" transform="translate(-390.985 1379.377) rotate(90)" fill="url(#linear-gradient)"/>
    <rect id="Rectangle_13" data-name="Rectangle 13" width="48" height="17" transform="translate(-434 1379)" fill="url(#linear-gradient-2)"/>
    <rect id="Rectangle_15" data-name="Rectangle 15" width="34" height="16" transform="translate(-420 1409)" fill="url(#linear-gradient-3)"/>
  </g>
</svg>
