<svg xmlns="http://www.w3.org/2000/svg" xmlns:xlink="http://www.w3.org/1999/xlink" width="90" height="90" viewBox="0 0 90 90">
  <defs>
    <clipPath id="clip-path">
      <circle id="Ellipse_6" data-name="Ellipse 6" cx="45" cy="45" r="45" transform="translate(1120 1157)" fill="#ddd"/>
    </clipPath>
  </defs>
  <g id="Groupe_de_masques_1" data-name="Groupe de masques 1" transform="translate(-1120 -1157)" clip-path="url(#clip-path)">
    <g id="cod" transform="translate(1111.256 1148.258)">
      <g id="Groupe_4" data-name="Groupe 4">
        <path id="Tracé_1" data-name="Tracé 1" d="M17.941,89.035C6.029,76.024,6.068,31.377,17.93,18.469s59.72-13.025,71.629-.016,11.852,57.656-.011,70.561-59.7,13.031-71.607.022Z" fill="#1f69ec"/>
        <path id="Tracé_2" data-name="Tracé 2" d="M55.236,25.335a28.661,28.661,0,0,1,16.087,5.1,5.332,5.332,0,0,1,1.141,8.4l-1.422,1.43c-.959.964-2.359,2.361-2.359,2.361a5.536,5.536,0,0,1-6.951.423A12.56,12.56,0,0,0,43.984,47.81c-3.781,6.788-.112,15.183,6.708,17.73a12.637,12.637,0,0,0,11.43-1.354,5.421,5.421,0,0,1,6.542.681c1.15,1.136,2.307,2.283,3.359,3.331a5.6,5.6,0,0,1,1.942,3.753c.24,2.863-1.394,4.74-5.194,6.7A28.411,28.411,0,1,1,54.541,25.341c.231,0,.463-.006.695-.006Z" fill="#fff"/>
      </g>
    </g>
  </g>
</svg>
