<svg xmlns="http://www.w3.org/2000/svg" xmlns:xlink="http://www.w3.org/1999/xlink" width="90" height="90" viewBox="0 0 90 90">
  <defs>
    <clipPath id="clip-path">
      <circle id="Ellipse_6" data-name="Ellipse 6" cx="45" cy="45" r="45" transform="translate(1120 1157)" fill="#ddd"/>
    </clipPath>
  </defs>
  <g id="Groupe_de_masques_1" data-name="Groupe de masques 1" transform="translate(-1120 -1157)" clip-path="url(#clip-path)">
    <g id="_3225190_app_linkedin_logo_media_popular_icon" data-name="3225190_app_linkedin_logo_media_popular_icon" transform="translate(1120 1157)">
      <path id="Tracé_1" data-name="Tracé 1" d="M45,90h0A45,45,0,0,1,0,45H0A45,45,0,0,1,45,0h0A45,45,0,0,1,90,45h0A45,45,0,0,1,45,90Z" fill="#0078b5"/>
      <g id="Groupe_5" data-name="Groupe 5">
        <g id="Groupe_4" data-name="Groupe 4">
          <path id="Tracé_2" data-name="Tracé 2" d="M16.578,34.857H28.539V73.35H16.578Zm5.985-19.134a6.939,6.939,0,1,1-6.939,6.939,6.935,6.935,0,0,1,6.939-6.939" fill="#fff"/>
          <path id="Tracé_3" data-name="Tracé 3" d="M36.045,34.857H47.52v5.256h.162c1.593-3.024,5.49-6.219,11.322-6.219,12.114,0,14.355,7.974,14.355,18.333V73.35H61.4V54.639c0-4.473-.081-10.206-6.219-10.206-6.228,0-7.182,4.86-7.182,9.882V73.359H36.045Z" fill="#fff"/>
        </g>
      </g>
    </g>
  </g>
</svg>
