<svg xmlns="http://www.w3.org/2000/svg" width="121.301" height="123.427" viewBox="0 0 121.301 123.427">
  <g id="author" transform="translate(-3.996)">
    <path id="Tracé_110" data-name="Tracé 110" d="M104.094,0l21.281,21.281v95.763a6.384,6.384,0,0,1-6.384,6.384H36V0Z" transform="translate(-23.488)" fill="#e6e6e6"/>
    <g id="Groupe_39" data-name="Groupe 39" transform="translate(3.996)">
      <path id="Tracé_111" data-name="Tracé 111" d="M292,0V21.281h21.281Z" transform="translate(-215.386)" fill="#294c60"/>
      <path id="Tracé_112" data-name="Tracé 112" d="M95.5,422.9a6.384,6.384,0,0,1-6.384-6.384h0V408H4v8.512A6.384,6.384,0,0,0,10.38,422.9H95.5Z" transform="translate(-3.996 -299.469)" fill="#294c60"/>
    </g>
    <path id="Tracé_113" data-name="Tracé 113" d="M84,72h4.256V82.64H84Z" transform="translate(-58.719 -52.847)" fill="#c17817"/>
    <path id="Tracé_114" data-name="Tracé 114" d="M116,56h4.256V70.9H116Z" transform="translate(-82.207 -41.104)" fill="#3e7d95"/>
    <path id="Tracé_115" data-name="Tracé 115" d="M148,32h4.256V53.281H148Z" transform="translate(-105.695 -23.488)" fill="#c17817"/>
    <path id="Tracé_116" data-name="Tracé 116" d="M180,40h4.256V59.153H180Z" transform="translate(-129.183 -29.36)" fill="#3e7d95"/>
    <path id="Tracé_117" data-name="Tracé 117" d="M212,56h4.256V70.9H212Z" transform="translate(-152.671 -41.104)" fill="#c17817"/>
    <path id="Tracé_118" data-name="Tracé 118" d="M68,104h46.817v4.256H68Z" transform="translate(-46.976 -76.335)" fill="#294c60"/>
    <g id="Groupe_40" data-name="Groupe 40" transform="translate(21.02 38.305)">
      <path id="Tracé_119" data-name="Tracé 119" d="M68,144h4.256v4.256H68Z" transform="translate(-67.996 -144)" fill="#999"/>
      <path id="Tracé_120" data-name="Tracé 120" d="M100,144h63.842v4.256H100Z" transform="translate(-91.484 -144)" fill="#999"/>
      <path id="Tracé_121" data-name="Tracé 121" d="M68,176h68.1v4.256H68Z" transform="translate(-67.996 -167.488)" fill="#999"/>
      <path id="Tracé_122" data-name="Tracé 122" d="M68,208h59.586v4.256H68Z" transform="translate(-67.996 -190.976)" fill="#999"/>
      <path id="Tracé_123" data-name="Tracé 123" d="M68,240h51.073v4.256H68Z" transform="translate(-67.996 -214.463)" fill="#999"/>
    </g>
    <path id="Tracé_124" data-name="Tracé 124" d="M104.173,305.537H70.124A2.128,2.128,0,0,1,68,303.409V280h4.256v21.281h31.921Z" transform="translate(-46.976 -205.518)" fill="#294c60"/>
    <path id="Tracé_125" data-name="Tracé 125" d="M97.349,311.993l-3.009-3.009,8.512-8.512a2.128,2.128,0,0,1,3.009,0l4.88,4.88,7.008-7.008,3.009,3.009-8.512,8.512a2.128,2.128,0,0,1-3.009,0l-4.88-4.88Z" transform="translate(-66.312 -218.982)" fill="#3e7d95"/>
    <path id="Tracé_126" data-name="Tracé 126" d="M233.918,179.683,227.9,197.739l18.057-6.018,43.683-43.683L277.6,136Z" transform="translate(-164.344 -99.823)" fill="#216690"/>
    <path id="Tracé_127" data-name="Tracé 127" d="M376.2,181.983,370.182,188l-12.038-12.038,6.019-6.019Z" transform="translate(-259.942 -124.738)" fill="#79521e"/>
    <path id="Tracé_128" data-name="Tracé 128" d="M401.875,148.032l-9.029,9.029-12.038-12.038,9.029-9.029Z" transform="translate(-276.577 -99.819)" fill="#c17817"/>
    <path id="Tracé_129" data-name="Tracé 129" d="M245.957,312.254,227.9,318.273l6.018-18.057Z" transform="translate(-164.344 -220.356)" fill="#79521e"/>
    <path id="Tracé_130" data-name="Tracé 130" d="M250.53,221.2l28.634-28.634,6.019,6.019-28.635,28.634Z" transform="translate(-180.954 -141.344)" fill="#3e7d95"/>
  </g>
</svg>
