<svg xmlns="http://www.w3.org/2000/svg" width="102.194" height="93.619" viewBox="0 0 102.194 93.619">
  <g id="mail" transform="translate(0 -21.482)">
    <path id="Tracé_40" data-name="Tracé 40" d="M272.4,290.736l-12.774-12.8a2.129,2.129,0,0,0-3.636,1.5V309.27a2.129,2.129,0,0,0,1.456,2.018,2.1,2.1,0,0,0,.673.111,2.129,2.129,0,0,0,1.7-.852L272.6,293.516A2.129,2.129,0,0,0,272.4,290.736Z" transform="translate(-204.901 -204.772)" fill="#6eabc3"/>
    <path id="Tracé_41" data-name="Tracé 41" d="M228.894,303.123l-12.774-4.258a2.129,2.129,0,0,0-2.7,2.691l8.516,25.547a2.129,2.129,0,0,0,2.022,1.456h.132a2.129,2.129,0,0,0,1.954-1.7l4.258-21.29A2.129,2.129,0,0,0,228.894,303.123Z" transform="translate(-170.741 -221.932)" fill="#3e7d95"/>
    <path id="Tracé_42" data-name="Tracé 42" d="M169.571,21.9a2.129,2.129,0,0,0-2.286-.1l-80.9,46.837a2.129,2.129,0,0,0,.4,3.862l38.236,12.748,29.72,12.74a2.129,2.129,0,0,0,2.934-1.588l12.774-72.384A2.129,2.129,0,0,0,169.571,21.9Z" transform="translate(-68.293 -0.031)" fill="#294c60"/>
    <g id="Groupe_29" data-name="Groupe 29" transform="translate(0 21.482)">
      <path id="Tracé_43" data-name="Tracé 43" d="M274.37,24.854a2.129,2.129,0,0,0-3.24-2.742L215.611,80.667,231.633,86.2Z" transform="translate(-172.578 -21.482)" fill="#3e7d95"/>
      <path id="Tracé_44" data-name="Tracé 44" d="M5.2,391.332a2.129,2.129,0,0,1-1.443-.562q-1.592-1.465-3.134-3.01a2.13,2.13,0,0,1,3.01-3.015q1.482,1.482,3.01,2.891a2.129,2.129,0,0,1-1.443,3.7Z" transform="translate(0 -311.743)" fill="#c17817"/>
      <path id="Tracé_45" data-name="Tracé 45" d="M78.571,443.116a30.643,30.643,0,0,1-6.106-.635,2.129,2.129,0,1,1,.687-4.2c.055.009.11.02.165.034a26.415,26.415,0,0,0,5.267.545h.971a2.018,2.018,0,0,1,2.21,2.048,2.129,2.129,0,0,1-2.048,2.206H78.6Zm-15.256-4.075a2.128,2.128,0,0,1-.979-.239,55.6,55.6,0,0,1-6.051-3.675,2.129,2.129,0,0,1,2.427-3.5,50.517,50.517,0,0,0,5.578,3.406,2.129,2.129,0,0,1-.979,4.02Z" transform="translate(-44.364 -349.498)" fill="#c17817"/>
      <path id="Tracé_46" data-name="Tracé 46" d="M217.628,454.392a2.129,2.129,0,0,1-.851-4.088,30.918,30.918,0,0,0,3.564-1.805,2.129,2.129,0,0,1,2.163,3.666,35.327,35.327,0,0,1-4.053,2.057A2.132,2.132,0,0,1,217.628,454.392Z" transform="translate(-172.474 -363.056)" fill="#c17817"/>
    </g>
  </g>
</svg>
