<svg xmlns="http://www.w3.org/2000/svg" width="99.196" height="99.074" viewBox="0 0 99.196 99.074">
  <g id="Wrench" transform="translate(-2.906 -3.073)">
    <path id="Tracé_98" data-name="Tracé 98" d="M14.3,45.515,7.331,52.487l2.553,9.521L19.4,64.561l6.972-6.972-2.551-9.523Z" transform="translate(3.131 30.029)" fill="none"/>
    <path id="Tracé_99" data-name="Tracé 99" d="M48.471,27.25l-1.617-1.617h0Z" transform="translate(31.092 15.962)" fill="none"/>
    <path id="Tracé_100" data-name="Tracé 100" d="M45.985,24.77l1.866,1.863h0L45.44,24.22Z" transform="translate(30.093 14.962)" fill="#a7a9ac"/>
    <path id="Tracé_101" data-name="Tracé 101" d="M100.8,13.913,89.738,24.975l-8.452-1.207-1.207-8.452,11.06-11.06A17.051,17.051,0,0,0,67.877,21.168a3.3,3.3,0,0,1-1,2.513L58.622,31.94,29.644,60.919,23.533,67.03a3.325,3.325,0,0,1-2.527.992c-.342-.02-.683-.029-1.025-.029A17.075,17.075,0,1,0,37.056,85.068c0-.341,0-.683-.029-1.024a3.325,3.325,0,0,1,.992-2.527l6.111-6.111L63.451,56.088,70.7,48.845a3.415,3.415,0,0,0-4.831,0,6.83,6.83,0,0,1-9.659,0,3.415,3.415,0,0,1,0-4.831l8.452-8.452a5.123,5.123,0,0,1,7.245,0l4.175,4.17-.545-.55,2.413,2.413,3.415-3.425a3.3,3.3,0,0,1,2.513-1A17.051,17.051,0,0,0,100.8,13.913ZM22.532,94.589l-9.518-2.553-2.553-9.518,6.972-6.972L26.956,78.1l2.551,9.523Z" transform="translate(0 0)" fill="#3e7d95"/>
    <path id="Tracé_102" data-name="Tracé 102" d="M47.489,26.27,43.314,22.1l4.829,4.831Z" transform="translate(28.589 13.462)" fill="#a7a9ac"/>
    <path id="Tracé_103" data-name="Tracé 103" d="M40.778,74l-2.414-2.414L67.342,42.607,77,52.265l.015,21.749Z" transform="translate(25.087 27.971)" fill="#c17817"/>
    <path id="Tracé_104" data-name="Tracé 104" d="M70.757,46.022l-3.415-3.415L38.364,71.583,40.778,74l2,0Z" transform="translate(25.087 27.971)" fill="#e3be7d"/>
    <rect id="Rectangle_187" data-name="Rectangle 187" width="25.613" height="10.245" rx="3" transform="translate(40.512 28.311) rotate(45)" fill="#ffbcab"/>
    <rect id="Rectangle_188" data-name="Rectangle 188" width="25.613" height="10.245" rx="3" transform="translate(48.962 22.274) rotate(45)" fill="#ffb19d"/>
    <path id="Tracé_105" data-name="Tracé 105" d="M27.435,69.066,20.46,76.038l-9.518-2.553L5.835,78.592A17.075,17.075,0,0,0,34.986,66.515c0-.342,0-.683-.029-1.025a3.324,3.324,0,0,1,.992-2.527l6.111-6.111L61.379,37.537l7.245-7.243a3.415,3.415,0,0,0-4.831,0,6.83,6.83,0,0,1-9.659,0l-29.25,29.25Z" transform="translate(2.072 18.551)" fill="#294c60"/>
    <path id="Tracé_106" data-name="Tracé 106" d="M72.8,9.421,61.741,20.484l-8.452-1.207L42.477,30.089a5.1,5.1,0,0,1,1.429.985l4.175,4.17-.545-.55,2.413,2.413,3.415-3.425a3.3,3.3,0,0,1,2.513-1A17.051,17.051,0,0,0,72.8,9.421Z" transform="translate(27.997 4.492)" fill="#294c60"/>
    <rect id="Rectangle_189" data-name="Rectangle 189" width="25.613" height="10.245" rx="3" transform="translate(35.682 37.969) rotate(45)" fill="#ffb19d"/>
    <rect id="Rectangle_190" data-name="Rectangle 190" width="25.613" height="10.245" rx="3" transform="translate(29.648 46.42) rotate(45)" fill="#ffbcab"/>
    <path id="Tracé_107" data-name="Tracé 107" d="M72.572,59.758A17.014,17.014,0,0,1,67.621,49.5L66.391,38.533a13.723,13.723,0,0,0-3.91-8.162l-1.619-1.617L59,26.892l.654.661-4.829-4.831a5.123,5.123,0,0,0-7.245,0l-8.452,8.452a3.415,3.415,0,0,0,0,4.831,6.83,6.83,0,0,0,9.659,0,3.415,3.415,0,0,1,4.831,0l-7.245,7.243L27.05,62.567,48.783,84.3l24.16-24.16Z" transform="translate(17.082 12.84)" fill="#ffa791"/>
  </g>
</svg>
