<?xml version="1.0" encoding="utf-8"?>
<!-- Generator: Adobe Illustrator 24.2.1, SVG Export Plug-In . SVG Version: 6.00 Build 0)  -->
<svg version="1.1" id="Calque_1" xmlns="http://www.w3.org/2000/svg" xmlns:xlink="http://www.w3.org/1999/xlink" x="0px" y="0px"
	 viewBox="0 0 89 85" style="enable-background:new 0 0 89 85;" xml:space="preserve">
<style type="text/css">
	.st0{fill:#D9AD5F;}
</style>
<path class="st0" d="M54,54c1.5,1.3,3,4,3,8.1c0,5.8-0.1,10.5-0.1,11.9c0,0.7,0.3,1.5,1,1.9H34c0.7-0.4,1-1.2,1-1.8
	c0-1,0-3.8-0.1-7.4c-12.4,2.6-15-5.9-15-5.9c-2-5-5-6.4-5-6.4c-4-2.7,0.3-2.6,0.3-2.6c4.5,0.3,6.8,4.5,6.8,4.5
	c4,6.7,10.4,4.7,13,3.6c0.2-2.2,1.2-4.3,2.8-5.8c-9.9-1.1-20.3-4.9-20.3-21.5c-0.1-4.3,1.6-8.5,4.6-11.7c-0.5-1.1-2-5.5,0.4-11.5
	c0,0,3.7-1.2,12.2,4.5c7.3-2,15-2,22.2,0c8.5-5.6,12.2-4.5,12.2-4.5c2.4,6,0.9,10.4,0.4,11.5c3,3.2,4.6,7.4,4.6,11.7
	C74.3,49.2,63.9,52.9,54,54z"/>
</svg>
