<?xml version="1.0" encoding="utf-8"?>
<!-- Generator: Adobe Illustrator 24.2.1, SVG Export Plug-In . SVG Version: 6.00 Build 0)  -->
<svg version="1.1" id="Calque_1" xmlns="http://www.w3.org/2000/svg" xmlns:xlink="http://www.w3.org/1999/xlink" x="0px" y="0px"
	 viewBox="0 0 84.2 84.2" style="enable-background:new 0 0 84.2 84.2;" xml:space="preserve">
<style type="text/css">
	.st0{fill:#D9AD5F;}
</style>
<path class="st0" d="M67.2,45.3v17.4H57.1V46.6c0-4.1-1.4-6.9-5.1-6.9c-2.3,0-4.4,1.4-5.1,3.6c-0.3,0.8-0.5,1.7-0.4,2.6v16.8H36.4
	c0,0,0.2-27.3,0-30.2h10.1v4.2c1.9-3.2,5.4-5.2,9.1-5.1C62.3,31.8,67.2,36,67.2,45.3z"/>
<path class="st0" d="M31.6,23.5c-0.1,2.8-2.5,5-5.3,4.9c-0.1,0-0.2,0-0.4,0v0h-0.8c-2.9-0.2-5.1-2.8-4.9-5.7
	c0.2-2.9,2.8-5.1,5.7-4.9h0.8C29.6,18.1,31.7,20.6,31.6,23.5z"/>
<rect x="20.8" y="32.6" class="st0" width="10.1" height="30.2"/>
</svg>
