<?xml version="1.0" encoding="utf-8"?>
<!-- Generator: Adobe Illustrator 24.2.1, SVG Export Plug-In . SVG Version: 6.00 Build 0)  -->
<svg version="1.1" id="Calque_1" xmlns="http://www.w3.org/2000/svg" xmlns:xlink="http://www.w3.org/1999/xlink" x="0px" y="0px"
	 viewBox="0 0 85 85" style="enable-background:new 0 0 85 85;" xml:space="preserve">
<style type="text/css">
	.st0{fill:#D9AD5F;stroke:#294C60;stroke-width:1.5;}
</style>
<path class="st0" d="M42.4,73.5L42.4,73.5c-5,0-9-4-9-9v-42c0-5,4-9,9-9h0c5,0,9,4,9,9v42C51.4,69.5,47.4,73.5,42.4,73.5z"/>
<path class="st0" d="M63.6,64.8L63.6,64.8c-3.5,3.5-9.2,3.5-12.7,0L21.2,35.1c-3.5-3.5-3.5-9.2,0-12.7l0,0c3.5-3.5,9.2-3.5,12.7,0
	L63.6,52C67.2,55.6,67.2,61.3,63.6,64.8z"/>
<path class="st0" d="M72.4,43.5L72.4,43.5c0,5-4,9-9,9h-42c-5,0-9-4-9-9v0c0-5,4-9,9-9h42C68.3,34.5,72.4,38.5,72.4,43.5z"/>
<path class="st0" d="M63.7,22.3L63.7,22.3c3.5,3.5,3.5,9.2,0,12.7L34,64.7c-3.5,3.5-9.2,3.5-12.7,0l0,0c-3.5-3.5-3.5-9.2,0-12.7
	L51,22.3C54.5,18.8,60.2,18.8,63.7,22.3z"/>
</svg>
