<svg xmlns="http://www.w3.org/2000/svg" width="159.2" height="119.563" viewBox="0 0 159.2 119.563">
  <g id="Logo" transform="translate(-443.948 -887.313)">
    <g id="MBN" transform="translate(444.448 927.821)">
      <g id="Groupe_1" transform="translate(0)">
        <path id="Tracé_1" d="M59.79,39.067a3.853,3.853,0,0,1-.1.793q-.149.446-.3.446-2.826,0-5.8-.149t-5.652-.149q-2.677,0-5.5.149t-5.652.149c-.1,0-.248-.149-.347-.446a4.2,4.2,0,0,1-.2-.843,1.989,1.989,0,0,1,.149-.744c.1-.3.2-.5.3-.545,2.082-.248,3.52-.694,4.313-1.438a3.931,3.931,0,0,0,.992-3.421L40.951,7.784,28.308,40.8q-.074.149-.595.3a4.589,4.589,0,0,1-1.14.2,3.6,3.6,0,0,1-1.239-.2,1.489,1.489,0,0,1-.545-.3L12,9.122l-1.438,23.8a4.14,4.14,0,0,0,.992,3.47c.793.694,2.33,1.19,4.561,1.438.1,0,.2.149.248.5a4.339,4.339,0,0,1,.1.793,1.629,1.629,0,0,1-.2.843c-.1.3-.248.446-.347.446q-2.231,0-4.016-.149-1.859-.149-3.867-.149-2.082,0-3.867.149c-1.19.1-2.479.149-3.768.149-.1,0-.2-.149-.3-.5a3.853,3.853,0,0,1-.1-.793,1.455,1.455,0,0,1,.2-.793c.149-.248.248-.446.4-.446A9.376,9.376,0,0,0,5.3,36.439a4.859,4.859,0,0,0,1.537-3.47L9.221,7.437A4.037,4.037,0,0,0,8.18,3.966c-.793-.694-2.33-1.14-4.561-1.438-.149,0-.248-.2-.3-.5a3.827,3.827,0,0,1-.1-.744,1.63,1.63,0,0,1,.2-.843c.1-.3.248-.446.347-.446Q5.255,0,7.635.149,10.089.3,11.353.3q1.636,0,4.313-.149C17.451.05,18.938,0,20.178,0L30.787,26.226,41,0c1.487,0,2.975.05,4.561.149S48.437.3,49.428.3c1.14,0,2.528-.05,4.115-.149S56.518,0,57.658,0q.149,0,.3.446a2.245,2.245,0,0,1,.149.793,4.339,4.339,0,0,1-.1.793c-.1.347-.2.5-.3.5-2.132.248-3.57.694-4.313,1.438A4.251,4.251,0,0,0,52.4,7.387L53.642,32.87a5.4,5.4,0,0,0,1.19,3.421c.694.744,2.231,1.239,4.561,1.438.1,0,.2.149.3.5A5.521,5.521,0,0,1,59.79,39.067Z" transform="translate(0 0)" stroke="#000" stroke-width="1"/>
        <path id="Tracé_2" d="M169.45,29.2a10.389,10.389,0,0,1-3.52,7.932c-2.38,2.181-6.643,3.272-12.89,3.272q-2.826,0-6.247-.149c-2.281-.1-4.264-.149-6.048-.149s-3.718.05-5.85.149-4.164.149-6.048.149q-.149,0-.3-.446a2.245,2.245,0,0,1-.149-.793,1.989,1.989,0,0,1,.149-.744c.1-.3.2-.5.3-.545,2.281-.248,3.768-.744,4.512-1.438a4.5,4.5,0,0,0,1.091-3.421V7.487a4.5,4.5,0,0,0-1.091-3.421c-.744-.694-2.231-1.19-4.512-1.438-.1-.05-.2-.2-.3-.545a1.989,1.989,0,0,1-.149-.744,2.055,2.055,0,0,1,.149-.793q.149-.446.3-.446c1.884,0,3.867.05,5.85.149,2.033.1,3.917.149,5.7.149s3.669-.05,5.652-.149S149.966.1,151.9.1q8.031,0,11.75,2.528a7.687,7.687,0,0,1,3.669,6.544,7.659,7.659,0,0,1-2.925,5.85c-1.934,1.686-4.759,2.826-8.478,3.371,4.412.2,7.784,1.388,10.114,3.619A9.684,9.684,0,0,1,169.45,29.2ZM155.221,9.867c0-2.479-.446-4.264-1.388-5.354s-2.429-1.636-4.512-1.636h-.694a3.174,3.174,0,0,0-1.983.545,2.449,2.449,0,0,0-.744,2.132v11.7h3.074c2.231,0,3.867-.595,4.809-1.785.942-1.14,1.438-3.024,1.438-5.6Zm2.281,18.74c0-2.776-.595-4.908-1.834-6.346a6.736,6.736,0,0,0-5.4-2.181H145.9V33.912a3.416,3.416,0,0,0,1.041,2.776,4.468,4.468,0,0,0,2.826.892,8.023,8.023,0,0,0,5.255-2.132c1.636-1.438,2.479-3.718,2.479-6.842Z" transform="translate(-64.743 -0.05)" stroke="#000" stroke-width="1"/>
        <path id="Tracé_3" d="M269.232,1.39a2.245,2.245,0,0,1-.149.793c-.1.347-.2.5-.3.5a8.777,8.777,0,0,0-4.561,1.438,4.349,4.349,0,0,0-1.388,3.47l-.595,33.068c0,.1-.149.248-.4.4a2.718,2.718,0,0,1-1.239.2,4.067,4.067,0,0,1-1.091-.1,1.117,1.117,0,0,1-.694-.4L230.611,12.247l-.347,20.723a3.981,3.981,0,0,0,1.239,3.421,9.186,9.186,0,0,0,4.71,1.487q.149,0,.3.446a2.316,2.316,0,0,1,.149.843,2.055,2.055,0,0,1-.149.793q-.149.446-.3.446c-1.487,0-2.826-.05-4.065-.149s-2.528-.149-3.867-.149q-2.082,0-3.867.149c-1.19.1-2.429.149-3.768.149q-.149,0-.3-.446a2.245,2.245,0,0,1-.149-.793,2.055,2.055,0,0,1,.149-.793c.1-.248.248-.446.347-.446,2.181-.248,3.718-.694,4.561-1.438a4.338,4.338,0,0,0,1.289-3.421l.942-23.6a6.854,6.854,0,0,0-1.289-4.71c-.892-1.041-2.578-1.735-5.057-1.983-.1-.05-.2-.2-.3-.545a3.828,3.828,0,0,1-.1-.744,2.316,2.316,0,0,1,.149-.843q.149-.446.3-.446c.942,0,2.033.05,3.322.149s2.33.149,3.123.149a23.34,23.34,0,0,0,2.628-.149C231.305.25,232.4.2,233.437.2l25.978,26.226V7.537a3.955,3.955,0,0,0-1.388-3.421,10.173,10.173,0,0,0-4.759-1.438.848.848,0,0,1-.3-.446,2.246,2.246,0,0,1-.149-.793,2.056,2.056,0,0,1,.149-.793q.149-.446.3-.446,2.231,0,3.867.149c1.041.1,2.281.149,3.619.149,1.388,0,2.776-.05,4.115-.149S267.546.2,268.835.2q.149,0,.3.446A2.685,2.685,0,0,1,269.232,1.39Z" transform="translate(-111.031 -0.101)" stroke="#000" stroke-width="1"/>
      </g>
    </g>
    <g id="Ellipse_1" transform="translate(468.331 889.982)">
      <path id="Tracé_4" d="M109.4,172.6C92.838,199.967,56,209.386,27.156,193.67A58.766,58.766,0,0,1,5,172.6H7.247c16.564,26.177,52.41,34.654,80,18.938A57.423,57.423,0,0,0,107.208,172.6Z" transform="translate(-2.521 -87.021)" stroke="#000" stroke-miterlimit="10" stroke-width="5"/>
      <path id="Tracé_5" d="M109.36,33.406h-2.137C93.462,5.791,58.746-5.958,29.764,7.13A56.921,56.921,0,0,0,2.137,33.406H0C13.761,4.7,49.415-7.941,79.6,5.147A58.887,58.887,0,0,1,109.36,33.406Z" transform="translate(0 0.018)" stroke="#000" stroke-miterlimit="10" stroke-width="5"/>
    </g>
  </g>
</svg>
