<svg id="Groupe_62" xmlns="http://www.w3.org/2000/svg" width="85.92" height="152.16" viewBox="0 0 85.92 152.16">
  <path id="Tracé_15" d="M0,55.22A40.32,40.32,0,1,0,40.32,14.9,40.253,40.253,0,0,0,0,55.22Z" transform="translate(0 56.62)" fill="#c1272d"/>
  <path id="Tracé_16" d="M49.06,0H43.3V5.28a129.335,129.335,0,0,1-25.44,76.8L9.7,93.12l4.8,3.36,8.16-11.04a139.434,139.434,0,0,0,24.48-55.2" transform="translate(36.86)" fill="#603813"/>
  <path id="Tracé_17" d="M5.4,32.28H31.32A31.649,31.649,0,0,0,63,.6H37.08A31.349,31.349,0,0,0,5.4,32.28Z" transform="translate(20.52 2.28)" fill="#009245"/>
  <path id="Tracé_18" d="M17,3,18.92.6a10.569,10.569,0,0,0,.48,3.84Z" transform="translate(64.6 2.28)" fill="#009245"/>
  <path id="Tracé_19" d="M13.1,15V9.24a14.379,14.379,0,0,0,8.64-2.88L28.94.6h4.8a10.569,10.569,0,0,1-.48,3.84l-7.68,6.24A19.721,19.721,0,0,1,13.1,15Z" transform="translate(49.78 2.28)" fill="#39b54a"/>
  <g id="Groupe_29" transform="translate(43.032 83.189)">
    <path id="Tracé_20" d="M17.28,17.28V11.52A11.68,11.68,0,0,1,5.76,0H0A17.208,17.208,0,0,0,17.28,17.28Z" fill="#ad1f2a"/>
  </g>
</svg>
